<svg xmlns="http://www.w3.org/2000/svg" xmlns:xlink="http://www.w3.org/1999/xlink" width="6912" zoomAndPan="magnify" viewBox="0 0 5184 2592.000001" height="3456" preserveAspectRatio="xMidYMid meet" version="1.0"><defs><g/><clipPath id="abc65a97b3"><path d="M 1796 425.308594 L 1986 425.308594 L 1986 968 L 1796 968 Z M 1796 425.308594 " clip-rule="nonzero"/></clipPath><clipPath id="6f96f8c01b"><path d="M 1298 882 L 2094.167969 882 L 2094.167969 1360 L 1298 1360 Z M 1298 882 " clip-rule="nonzero"/></clipPath></defs><g fill="#ffffff" fill-opacity="1"><g transform="translate(282.516218, 1781.773645)"><g><path d="M 589.109375 -1025.8125 C 738.585938 -1025.8125 856.800781 -988.441406 943.75 -913.703125 C 1030.695312 -838.972656 1074.171875 -732.242188 1074.171875 -593.515625 L 764.96875 -593.515625 C 764.96875 -652.128906 749.578125 -698.53125 718.796875 -732.71875 C 688.023438 -766.914062 644.304688 -784.015625 587.640625 -784.015625 C 522.191406 -784.015625 474.078125 -763.5 443.296875 -722.46875 C 412.523438 -681.4375 397.140625 -624.285156 397.140625 -551.015625 L 397.140625 -457.21875 C 397.140625 -384.925781 412.523438 -328.019531 443.296875 -286.5 C 474.078125 -244.976562 521.21875 -224.21875 584.71875 -224.21875 C 647.238281 -224.21875 694.617188 -240.335938 726.859375 -272.578125 C 759.097656 -304.816406 775.21875 -350.242188 775.21875 -408.859375 L 1074.171875 -408.859375 C 1074.171875 -271.109375 1031.914062 -165.597656 947.40625 -92.328125 C 862.90625 -19.054688 743.472656 17.578125 589.109375 17.578125 C 417.160156 17.578125 286.976562 -26.382812 198.5625 -114.3125 C 110.15625 -202.238281 65.953125 -332.171875 65.953125 -504.109375 C 65.953125 -676.054688 110.15625 -805.992188 198.5625 -893.921875 C 286.976562 -981.847656 417.160156 -1025.8125 589.109375 -1025.8125 Z M 589.109375 -1025.8125 "/></g></g></g><g fill="#ffffff" fill-opacity="1"><g transform="translate(1303.865881, 1781.773645)"><g><path d="M 488 -791.34375 C 623.789062 -791.34375 730.519531 -756.90625 808.1875 -688.03125 C 885.863281 -619.15625 924.703125 -518.769531 924.703125 -386.875 C 924.703125 -254.988281 885.863281 -154.609375 808.1875 -85.734375 C 730.519531 -16.859375 623.789062 17.578125 488 17.578125 C 352.195312 17.578125 245.703125 -16.613281 168.515625 -85 C 91.335938 -153.382812 52.75 -254.007812 52.75 -386.875 C 52.75 -519.75 91.335938 -620.378906 168.515625 -688.765625 C 245.703125 -757.148438 352.195312 -791.34375 488 -791.34375 Z M 488 -593.515625 C 392.25 -593.515625 344.375 -538.3125 344.375 -427.90625 L 344.375 -344.375 C 344.375 -234.957031 392.25 -180.25 488 -180.25 C 584.71875 -180.25 633.078125 -234.957031 633.078125 -344.375 L 633.078125 -427.90625 C 633.078125 -538.3125 584.71875 -593.515625 488 -593.515625 Z M 488 -593.515625 "/></g></g></g><g fill="#ffffff" fill-opacity="1"><g transform="translate(2162.558234, 1781.773645)"><g><path d="M 403 -1080.03125 C 424.488281 -1080.03125 451.351562 -1077.34375 483.59375 -1071.96875 C 515.832031 -1066.601562 541.722656 -1060.5 561.265625 -1053.65625 L 561.265625 -882.203125 L 493.859375 -882.203125 C 462.597656 -882.203125 441.101562 -876.335938 429.375 -864.609375 C 417.65625 -852.890625 411.796875 -832.863281 411.796875 -804.53125 L 411.796875 -773.765625 L 561.265625 -773.765625 L 561.265625 -575.921875 L 411.796875 -575.921875 L 411.796875 0 L 120.171875 0 L 120.171875 -575.921875 L 11.71875 -575.921875 L 11.71875 -773.765625 L 120.171875 -773.765625 L 120.171875 -806 C 120.171875 -905.644531 144.59375 -976.226562 193.4375 -1017.75 C 242.289062 -1059.269531 312.144531 -1080.03125 403 -1080.03125 Z M 403 -1080.03125 "/></g></g></g><g fill="#ffffff" fill-opacity="1"><g transform="translate(2613.874785, 1781.773645)"><g><path d="M 403 -1080.03125 C 424.488281 -1080.03125 451.351562 -1077.34375 483.59375 -1071.96875 C 515.832031 -1066.601562 541.722656 -1060.5 561.265625 -1053.65625 L 561.265625 -882.203125 L 493.859375 -882.203125 C 462.597656 -882.203125 441.101562 -876.335938 429.375 -864.609375 C 417.65625 -852.890625 411.796875 -832.863281 411.796875 -804.53125 L 411.796875 -773.765625 L 561.265625 -773.765625 L 561.265625 -575.921875 L 411.796875 -575.921875 L 411.796875 0 L 120.171875 0 L 120.171875 -575.921875 L 11.71875 -575.921875 L 11.71875 -773.765625 L 120.171875 -773.765625 L 120.171875 -806 C 120.171875 -905.644531 144.59375 -976.226562 193.4375 -1017.75 C 242.289062 -1059.269531 312.144531 -1080.03125 403 -1080.03125 Z M 403 -1080.03125 "/></g></g></g><g fill="#ffffff" fill-opacity="1"><g transform="translate(3065.191336, 1781.773645)"><g><path d="M 488 -791.34375 C 629.65625 -791.34375 737.851562 -758.125 812.59375 -691.6875 C 887.332031 -625.257812 924.703125 -523.65625 924.703125 -386.875 L 924.703125 -337.046875 L 344.375 -337.046875 C 344.375 -281.359375 356.832031 -239.347656 381.75 -211.015625 C 406.664062 -182.691406 445.988281 -168.53125 499.71875 -168.53125 C 548.5625 -168.53125 584.460938 -178.785156 607.421875 -199.296875 C 630.390625 -219.816406 641.875 -247.171875 641.875 -281.359375 L 924.703125 -281.359375 C 924.703125 -187.578125 889.039062 -114.304688 817.71875 -61.546875 C 746.40625 -8.796875 642.359375 17.578125 505.578125 17.578125 C 361.960938 17.578125 250.585938 -15.878906 171.453125 -82.796875 C 92.316406 -149.722656 52.75 -251.082031 52.75 -386.875 C 52.75 -519.75 91.335938 -620.378906 168.515625 -688.765625 C 245.703125 -757.148438 352.195312 -791.34375 488 -791.34375 Z M 499.71875 -605.234375 C 407.882812 -605.234375 356.59375 -561.757812 345.84375 -474.8125 L 630.140625 -474.8125 C 630.140625 -514.863281 618.660156 -546.613281 595.703125 -570.0625 C 572.742188 -593.507812 540.75 -605.234375 499.71875 -605.234375 Z M 499.71875 -605.234375 "/></g></g></g><g fill="#ffffff" fill-opacity="1"><g transform="translate(3923.883866, 1781.773645)"><g><path d="M 488 -791.34375 C 629.65625 -791.34375 737.851562 -758.125 812.59375 -691.6875 C 887.332031 -625.257812 924.703125 -523.65625 924.703125 -386.875 L 924.703125 -337.046875 L 344.375 -337.046875 C 344.375 -281.359375 356.832031 -239.347656 381.75 -211.015625 C 406.664062 -182.691406 445.988281 -168.53125 499.71875 -168.53125 C 548.5625 -168.53125 584.460938 -178.785156 607.421875 -199.296875 C 630.390625 -219.816406 641.875 -247.171875 641.875 -281.359375 L 924.703125 -281.359375 C 924.703125 -187.578125 889.039062 -114.304688 817.71875 -61.546875 C 746.40625 -8.796875 642.359375 17.578125 505.578125 17.578125 C 361.960938 17.578125 250.585938 -15.878906 171.453125 -82.796875 C 92.316406 -149.722656 52.75 -251.082031 52.75 -386.875 C 52.75 -519.75 91.335938 -620.378906 168.515625 -688.765625 C 245.703125 -757.148438 352.195312 -791.34375 488 -791.34375 Z M 499.71875 -605.234375 C 407.882812 -605.234375 356.59375 -561.757812 345.84375 -474.8125 L 630.140625 -474.8125 C 630.140625 -514.863281 618.660156 -546.613281 595.703125 -570.0625 C 572.742188 -593.507812 540.75 -605.234375 499.71875 -605.234375 Z M 499.71875 -605.234375 "/></g></g></g><g clip-path="url(#abc65a97b3)"><path fill="#ffffff" d="M 1929.152344 610.871094 C 1913.96875 593.492188 1894.410156 574.925781 1875.996094 554.34375 C 1867.972656 545.375 1859.679688 533.492188 1851.121094 518.699219 C 1838.066406 496.148438 1829.65625 471.953125 1825.886719 446.117188 C 1824.917969 439.484375 1823.957031 432.902344 1823.011719 426.371094 C 1822.988281 426.222656 1822.925781 426.09375 1822.816406 425.988281 C 1822.710938 425.882812 1822.582031 425.820312 1822.429688 425.804688 C 1822.28125 425.785156 1822.140625 425.8125 1822.011719 425.890625 C 1821.882812 425.96875 1821.789062 426.074219 1821.734375 426.214844 C 1811.738281 451.238281 1803.851562 473.683594 1803.585938 502.1875 C 1803.519531 509.929688 1803.128906 517.84375 1803.953125 525.242188 C 1808.726562 568 1829.25 601.691406 1849.863281 638.238281 C 1864.664062 664.484375 1873.289062 693.636719 1875.742188 725.6875 C 1878.75 764.9375 1877.152344 800.328125 1861.546875 835.074219 C 1856.210938 846.964844 1849.414062 860.644531 1841.15625 876.121094 C 1825.421875 905.621094 1809.90625 935.390625 1796.324219 965.949219 C 1796.230469 966.164062 1796.21875 966.382812 1796.277344 966.605469 C 1796.339844 966.832031 1796.46875 967.011719 1796.65625 967.148438 C 1796.84375 967.285156 1797.054688 967.347656 1797.289062 967.339844 C 1797.519531 967.328125 1797.722656 967.246094 1797.898438 967.09375 C 1801.175781 964.105469 1804.550781 961.015625 1808.140625 958.316406 C 1836.09375 937.335938 1860.214844 920.8125 1886.257812 902.042969 C 1935.992188 866.207031 1983.648438 814.859375 1985.3125 749.644531 C 1986.65625 697.253906 1962.378906 648.917969 1929.152344 610.871094 Z M 1929.152344 610.871094 " fill-opacity="1" fill-rule="nonzero"/></g><path fill="#ffffff" d="M 1760.882812 936.691406 C 1787.683594 911.945312 1806.527344 882.308594 1811.347656 845.707031 C 1816.78125 804.40625 1806.230469 761.625 1786.027344 725.523438 C 1774.066406 704.164062 1760.027344 684.140625 1746.011719 664.105469 C 1726.886719 636.792969 1708.816406 606.324219 1705.273438 573.191406 C 1701.386719 536.664062 1712.359375 497.1875 1729.496094 464.960938 C 1729.582031 464.796875 1729.609375 464.621094 1729.574219 464.4375 C 1729.542969 464.257812 1729.457031 464.101562 1729.316406 463.980469 C 1729.175781 463.855469 1729.015625 463.789062 1728.828125 463.777344 C 1728.644531 463.765625 1728.472656 463.8125 1728.320312 463.917969 C 1686.117188 494.0625 1656.296875 534.464844 1649.976562 586.914062 C 1644.746094 630.359375 1663.039062 671.03125 1694.824219 700.042969 C 1706.964844 711.109375 1720.089844 722.457031 1730.574219 734.167969 C 1761.472656 768.734375 1783.617188 809.371094 1780.050781 857.363281 C 1777.769531 888.085938 1768.335938 916.421875 1751.742188 942.378906 C 1751.65625 942.511719 1751.621094 942.65625 1751.632812 942.8125 C 1751.648438 942.96875 1751.710938 943.105469 1751.820312 943.21875 C 1751.925781 943.332031 1752.058594 943.402344 1752.214844 943.421875 C 1752.371094 943.445312 1752.519531 943.414062 1752.652344 943.335938 C 1755.953125 941.457031 1758.183594 939.203125 1760.882812 936.691406 Z M 1760.882812 936.691406 " fill-opacity="1" fill-rule="nonzero"/><path fill="#ffffff" d="M 1696.414062 951.238281 C 1723.023438 926.992188 1739.09375 894.898438 1732.816406 858.308594 C 1723.800781 805.816406 1679.675781 778.226562 1639.882812 750.613281 C 1611.929688 731.210938 1585.519531 702.398438 1585.429688 666.320312 C 1585.425781 666.117188 1585.355469 665.9375 1585.226562 665.785156 C 1585.097656 665.628906 1584.933594 665.535156 1584.734375 665.496094 C 1584.535156 665.460938 1584.347656 665.488281 1584.167969 665.585938 C 1583.992188 665.679688 1583.863281 665.820312 1583.785156 666.007812 C 1578.265625 680.019531 1574 696.753906 1575.5 711.800781 C 1580.652344 763.746094 1624.390625 788.25 1657.996094 820.226562 C 1660.988281 823.074219 1665.945312 828.578125 1672.867188 836.742188 C 1687.539062 854.019531 1698.144531 874.554688 1700.066406 897.367188 C 1701.699219 916.710938 1696.710938 937.902344 1689.082031 955.890625 C 1689.023438 956.027344 1689.007812 956.164062 1689.039062 956.308594 C 1689.074219 956.453125 1689.144531 956.570312 1689.257812 956.667969 C 1689.367188 956.765625 1689.496094 956.816406 1689.644531 956.828125 C 1689.789062 956.839844 1689.925781 956.804688 1690.046875 956.726562 C 1692.402344 955.269531 1694.746094 952.757812 1696.414062 951.238281 Z M 1696.414062 951.238281 " fill-opacity="1" fill-rule="nonzero"/><g clip-path="url(#6f96f8c01b)"><path fill="#ffffff" d="M 1461.875 1014.441406 C 1423.515625 980.738281 1362.699219 983.226562 1327.125 1019.707031 C 1302.734375 1044.730469 1292.152344 1081.132812 1301.734375 1116.179688 C 1312.875 1156.925781 1344.394531 1189.894531 1378.347656 1212.597656 C 1421.871094 1241.6875 1473.3125 1259.921875 1525.644531 1267.089844 C 1531.597656 1267.90625 1537.554688 1268.6875 1543.515625 1269.433594 C 1552.210938 1270.511719 1560.5625 1268.644531 1567.804688 1275.355469 C 1620.648438 1324.257812 1689.492188 1356.21875 1761.992188 1358.882812 C 1788.09375 1359.839844 1810.882812 1358.71875 1836.027344 1353.628906 C 1908.660156 1338.960938 1973.507812 1295.214844 2018.699219 1237.078125 C 2058.503906 1185.875 2082.609375 1128.242188 2091.023438 1064.1875 C 2091.871094 1057.742188 2092.429688 1050.363281 2092.6875 1042.054688 C 2093.339844 1021.207031 2093.828125 997.496094 2094.152344 970.914062 C 2094.265625 961.980469 2093.9375 953.855469 2093.175781 946.535156 C 2090.253906 918.402344 2058.226562 906.945312 2034.324219 900.378906 C 2010.609375 893.867188 1986.539062 889.070312 1962.113281 885.988281 C 1957.625 885.421875 1954.792969 884.308594 1951.339844 888.222656 C 1945.425781 894.917969 1939.488281 901.40625 1933.527344 907.6875 C 1933.332031 907.898438 1933.285156 908.132812 1933.386719 908.402344 C 1933.484375 908.667969 1933.675781 908.816406 1933.960938 908.84375 C 1959.910156 911.511719 1985.300781 915.949219 2010.125 922.15625 C 2020.046875 924.636719 2029.46875 928.304688 2038.390625 933.15625 C 2044.652344 936.570312 2049.550781 940.914062 2046.53125 948.3125 C 2041.867188 959.714844 2003.273438 968.691406 1991.1875 970.914062 C 1961.304688 976.414062 1931.394531 979.761719 1901.140625 982.328125 C 1874.332031 984.609375 1846.832031 986.054688 1818.644531 986.660156 C 1790.445312 987.28125 1764.648438 988.070312 1738.402344 987.183594 C 1725.632812 986.753906 1712.859375 986.410156 1700.089844 986.148438 C 1680.609375 985.75 1660.496094 983.871094 1640.9375 982.015625 C 1612.140625 979.28125 1583.339844 975.914062 1554.976562 970.082031 C 1541.503906 967.304688 1521.589844 962.46875 1510.707031 954.035156 C 1501.613281 946.980469 1507.71875 937.234375 1516.382812 933.113281 C 1527.023438 928.046875 1537.886719 924.285156 1548.980469 921.835938 C 1570.933594 916.980469 1593.46875 913.296875 1616.59375 910.777344 C 1628.84375 909.445312 1644.589844 908.957031 1658.53125 907.523438 C 1658.742188 907.5 1658.941406 907.4375 1659.125 907.328125 C 1659.308594 907.222656 1659.464844 907.082031 1659.585938 906.90625 C 1659.710938 906.734375 1659.792969 906.539062 1659.835938 906.332031 C 1659.878906 906.121094 1659.875 905.910156 1659.828125 905.699219 L 1654.753906 883.464844 C 1654.664062 883.066406 1654.414062 882.871094 1654 882.875 C 1636.851562 883.222656 1615.617188 884.945312 1602.554688 886.265625 C 1570.46875 889.5 1538.40625 894.878906 1507.597656 905.378906 C 1493.714844 910.113281 1476.132812 918.902344 1467.960938 930.625 C 1462.109375 939.003906 1460.128906 949.582031 1460.375 959.871094 C 1460.679688 972.640625 1460.78125 985.421875 1460.6875 998.207031 C 1460.640625 1003.605469 1461.152344 1008.949219 1462.21875 1014.242188 C 1462.300781 1014.648438 1462.183594 1014.714844 1461.875 1014.441406 Z M 1366.328125 1039.199219 C 1379.132812 1031.042969 1396.605469 1027.929688 1411.253906 1031.550781 C 1439.40625 1038.53125 1458.753906 1062.53125 1466.117188 1089.679688 C 1468.308594 1097.753906 1470.515625 1105.824219 1472.734375 1113.890625 C 1484.699219 1157.40625 1505.375 1198.242188 1532.386719 1234.410156 C 1533.535156 1235.949219 1533.164062 1236.558594 1531.277344 1236.230469 C 1496.003906 1230.253906 1462.023438 1218.601562 1429.332031 1201.273438 C 1392.507812 1181.75 1334.832031 1137.535156 1337.886719 1089.945312 C 1339.242188 1068.921875 1348.425781 1050.585938 1366.328125 1039.199219 Z M 1366.328125 1039.199219 " fill-opacity="1" fill-rule="nonzero"/></g></svg>